<?xml version="1.0" encoding="utf-8"?>
<!-- Generator: Adobe Illustrator 23.0.3, SVG Export Plug-In . SVG Version: 6.00 Build 0)  -->
<svg version="1.1" id="Layer_1" xmlns="http://www.w3.org/2000/svg" xmlns:xlink="http://www.w3.org/1999/xlink" x="0px" y="0px"
	 viewBox="0 0 146.24 200.88" style="enable-background:new 0 0 146.24 200.88;" xml:space="preserve">
<style type="text/css">
	.st0{fill:#FFFFFF;}
	.st1{fill:#007CBD;}
</style>
<rect x="895.55" y="92.15" transform="matrix(-1.836970e-16 1 -1 -1.836970e-16 1283.442 -848.5526)" class="st0" width="340.9" height="250.58"/>
<path class="st1" d="M135.49,111.38V54.33c0-5.32-2.81-10.24-7.38-12.95L80.52,13.2c-4.73-2.8-10.61-2.8-15.34,0L17.59,41.38
	c-4.58,2.71-7.38,7.63-7.38,12.95v57.04c0,5.32,2.81,10.24,7.38,12.95l47.62,28.2c4.71,2.79,10.57,2.79,15.28,0l47.62-28.2
	C132.68,121.62,135.49,116.69,135.49,111.38z"/>
<g>
	<path class="st0" d="M87.85,105.67c0.11-0.01-0.98,1.11-1.57,1.75l-0.63,0.7c-2.48,2.89-4.19,6.49-4.78,10.53
		c-0.44,3.05-0.2,6.04,0.62,8.81l0,0c0.25,0.84,0.54,1.66,0.89,2.45c0.76-2.95,2.15-5.62,3.99-7.87c0.06-0.07,0.12-0.15,0.18-0.22
		c0.3-0.36,0.61-0.71,0.94-1.05l4.91-5.47c-0.11,0.01,0.97-1.12,1.57-1.75l0.63-0.7c2.47-2.89,4.18-6.49,4.76-10.54
		c0.43-3.02,0.19-5.99-0.61-8.74L87.85,105.67z"/>
	<path class="st0" d="M100.71,59.93c-0.25-0.84-0.55-1.66-0.89-2.45c-0.76,2.96-2.14,5.62-3.97,7.88
		c-12.29,13.69-23.9,26.58-23.9,26.58l-1.97,2.2l-0.05,0.06c-2.27,2.81-4.03,6.05-5.13,9.58c-0.26,0.82-0.48,1.66-0.66,2.51
		c-0.09,0.4-0.17,0.81-0.24,1.22c-0.53,4.7-0.02,8.68,0.55,11.19c-1.72-0.94-3.35-2.06-4.87-3.36v0c-0.57-0.49-1.13-1-1.67-1.54
		c-5.4-5.4-8.37-12.58-8.37-20.21c0-3.63,0.67-7.16,1.96-10.44c0.39-0.99,0.83-1.96,1.33-2.9c0.45-0.84,2.72-4.34,2.72-4.34
		l2.35-3.52l10.7-16.04l1.31-1.96l0.52-0.78c0.02-0.03,0.04-0.06,0.05-0.09l0.02-0.02c0.03-0.05,0.06-0.1,0.09-0.16
		c0.08-0.14,0.17-0.28,0.25-0.42c0.04-0.06,0.07-0.13,0.11-0.19c0.08-0.14,0.16-0.28,0.24-0.43c0.03-0.07,0.07-0.13,0.1-0.2
		c0.08-0.14,0.15-0.29,0.22-0.43c0.03-0.07,0.06-0.14,0.1-0.2c0.07-0.15,0.14-0.29,0.21-0.44c0.03-0.07,0.06-0.14,0.09-0.21
		c0.06-0.15,0.13-0.29,0.19-0.44c0.03-0.07,0.06-0.15,0.09-0.23c0.06-0.15,0.12-0.29,0.17-0.44c0.03-0.08,0.06-0.16,0.08-0.24
		c0.05-0.15,0.1-0.29,0.15-0.44c0.03-0.08,0.05-0.17,0.08-0.26c0.05-0.14,0.09-0.29,0.13-0.43c0.03-0.09,0.05-0.18,0.08-0.28
		c0.04-0.14,0.08-0.28,0.12-0.42c0.02-0.1,0.05-0.2,0.07-0.29c0.03-0.14,0.07-0.27,0.1-0.41c0.02-0.11,0.04-0.21,0.06-0.32
		c0.03-0.13,0.05-0.26,0.08-0.4c0.02-0.12,0.04-0.23,0.06-0.35c0.02-0.12,0.04-0.25,0.06-0.37c0.02-0.13,0.03-0.26,0.05-0.39
		c0.01-0.12,0.03-0.23,0.04-0.35c0.02-0.14,0.03-0.29,0.04-0.43c0.01-0.1,0.02-0.21,0.03-0.31c0.01-0.17,0.02-0.35,0.03-0.53
		c0-0.07,0.01-0.15,0.01-0.22c0.01-0.25,0.01-0.5,0.01-0.76c0-3.08-0.81-6-2.01-8.63c-0.08-0.17-0.8-1.57-1.06-2.02
		c-0.06-0.09-0.11-0.19-0.17-0.28c-0.04,0.38-0.09,0.76-0.16,1.13c-0.03,0.19-0.06,0.37-0.1,0.56c-0.04,0.22-0.09,0.44-0.14,0.66
		c-0.49,2.16-1.18,4.18-2.28,6.03c-0.14,0.23-0.28,0.45-0.43,0.68c-0.12,0.18-0.24,0.36-0.36,0.53c-0.11,0.16-0.22,0.32-0.34,0.48
		l-0.9,1.35L52.15,63.26l-3,4.5l-2.6,3.9l-0.52,0.78l-0.36,0.54c-0.57,0.89-1.1,1.81-1.59,2.75c-0.49,0.94-0.95,1.9-1.37,2.89
		c-2.01,4.74-3.02,9.77-3.02,14.96c0,0.46,0.01,0.91,0.02,1.37c0.03,0.93,0.1,1.85,0.2,2.77c0.05,0.46,0.11,0.91,0.17,1.36
		c0.46,3.25,1.34,6.41,2.63,9.46c0.85,2,1.85,3.91,3.01,5.73c0.17,0.26,0.33,0.52,0.51,0.77c1.38,2.04,2.95,3.95,4.71,5.71
		c0.29,0.29,0.59,0.58,0.9,0.87c0.1,0.09,0.2,0.18,0.29,0.27c0.21,0.19,0.42,0.38,0.63,0.57c0.12,0.1,0.23,0.2,0.35,0.3
		c0.22,0.18,0.43,0.37,0.65,0.55c0.11,0.09,0.21,0.17,0.31,0.26c0.3,0.24,0.6,0.47,0.9,0.7c0.15,0.12,0.31,0.23,0.47,0.34
		c0.17,0.12,0.34,0.24,0.51,0.36c0.18,0.12,0.35,0.25,0.53,0.37c0.15,0.1,0.31,0.21,0.46,0.31c0.19,0.12,0.37,0.25,0.56,0.37
		c0.01,0,0.01,0.01,0.02,0.01c0.26,0.18,0.53,0.34,0.81,0.5c0.02,0.01,0.04,0.03,0.07,0.04c0.1,0.06,0.19,0.11,0.29,0.17
		c0.29,0.17,0.58,0.33,0.87,0.5c0,0,0,0,0,0c0.05,0.03,0.1,0.06,0.16,0.09l0,0c0.11,0.06,0.23,0.12,0.35,0.18
		c0.45,0.24,0.9,0.47,1.35,0.69c0.04,0.02,0.07,0.03,0.11,0.05c0.54,0.26,1.09,0.51,1.65,0.74c0.02,0.01,0.05,0.02,0.07,0.03
		c2.3,0.97,4.67,1.7,7.09,2.2c0,0,0,0,0,0l0,0c0,0,0,0,0,0c0.22,0.05,0.45,0.09,0.67,0.13l0,0l0,0c-1.34-3.38-2.01-6.99-1.97-10.66
		c0-0.01,0-0.02,0-0.03c0-0.06,0-0.12,0-0.18c0.02-1.21,0.11-2.43,0.29-3.65c0.02-0.16,0.05-0.32,0.07-0.49
		c0.88-5.46,3.26-10.45,6.88-14.48c0.02-0.02,0.04-0.04,0.06-0.07l11.08-12.37l5.44-6.07l0.61-0.68c0.8-0.94,0.97-1.12,1.57-1.75
		l0.63-0.7c2.47-2.89,5.13-7.45,5.71-11.49C101.78,65.69,101.53,62.7,100.71,59.93z"/>
	<path class="st0" d="M91.03,65.63c0,0-1.68-1.86-2.81-3.79c-1.11-1.91-1.77-4.57-1.77-4.59c0,0-0.14-0.35-0.41-0.42
		c-0.46-0.18-0.73,0.23-0.87,0.46c-1.47,2.48-5.25,8.75-8.58,13.45c-3.13,4.4-6.71,9.01-9.16,12.1c-0.31,0.39-2.44,3.04-2.44,3.04
		l-0.01,0.02c-3.8,5.09-5.95,11.16-6.21,17.53c-0.14,3.43,2.05,9.86,2.05,9.86c-0.66-3.44-0.89-6.51-0.76-9.8
		c0.25-6.11,2.31-11.92,5.95-16.8c0.14-0.17,2.13-2.66,2.44-3.04c2.46-3.1,6.1-8.19,9.24-12.61c2.97-4.18,6.27-9.58,8.02-12.51
		c0.29,0.82,0.76,2.16,1.46,3.29C88.36,63.75,91.02,65.64,91.03,65.63L91.03,65.63z"/>
	<path class="st0" d="M82.75,59.37c-0.41-0.75-1.33-2.49-1.87-3.73c-0.85-1.93-1.2-3.24-1.21-3.26c0,0-0.16-0.34-0.43-0.4
		c-0.47-0.15-0.72,0.27-0.85,0.51c-1.34,2.55-4.77,9.02-7.85,13.88c-2.89,4.56-6.22,9.36-8.51,12.57c-0.29,0.41-2.27,3.17-2.27,3.17
		l-0.01,0.02c-3.52,5.29-4.98,11.09-4.9,17.47c0.04,3.43,2.2,9.55,2.2,9.55c-0.84-3.4-1.23-5.9-1.27-9.2
		c-0.07-6.11,1.67-12.02,5.05-17.09c0.13-0.18,1.99-2.77,2.27-3.16c2.3-3.23,5.46-8.41,8.36-13c2.74-4.33,5.94-10.27,7.53-13.28
		c0.33,0.81,0.67,1.5,1.24,2.7C81.14,58.03,82.75,59.37,82.75,59.37z"/>
</g>
<g>
	<g>
		<path class="st1" d="M31.34,180.19V165.7h6.77v14.53c0,2.21,1.4,3.61,3.61,3.61c2.21,0,3.61-1.4,3.61-3.61V165.7h6.77v14.49
			c0,5.75-3.67,9.77-10.38,9.77S31.34,185.94,31.34,180.19z"/>
		<path class="st1" d="M56.04,165.7h9.29c5.07,0,8.03,3.13,8.03,7.93c0,4.7-3.13,8-7.93,8h-2.62v7.89h-6.77V165.7z M64.24,175.94
			c1.43,0,2.18-0.99,2.18-2.35c0-1.29-0.82-2.21-2.11-2.21h-1.5v4.56H64.24z"/>
		<path class="st1" d="M75.91,165.7h6.77v17.9h6.84v5.92H75.91V165.7z"/>
		<path class="st1" d="M98.94,184.95l-1.43,4.56h-6.81l8.23-23.82h7.15l8.23,23.82h-6.81l-1.43-4.56H98.94z M102.51,172.7
			l-1.97,6.84h3.95L102.51,172.7z"/>
	</g>
	<g>
		<path class="st1" d="M31.34,194.16v-2.14h1v2.15c0,0.33,0.21,0.53,0.53,0.53c0.33,0,0.53-0.21,0.53-0.53v-2.15h1v2.14
			c0,0.85-0.54,1.44-1.53,1.44C31.88,195.6,31.34,195.01,31.34,194.16z"/>
		<path class="st1" d="M34.98,192.02H36l1.13,2v-2h0.99v3.52h-1l-1.16-1.97v1.97h-0.98V192.02z"/>
		<path class="st1" d="M38.7,192.02h1v3.52h-1V192.02z"/>
		<path class="st1" d="M41.29,195.53l-1.28-3.52h1.1l0.73,2.36l0.72-2.36h1.1l-1.28,3.52H41.29z"/>
		<path class="st1" d="M43.97,192.02h1.97v0.87h-0.97v0.43h0.82v0.87h-0.82v0.47h1.01v0.87h-2.01V192.02z"/>
		<path class="st1" d="M46.47,192.02h1.24c0.87,0,1.29,0.42,1.29,1.11c0,0.38-0.16,0.74-0.46,0.93l0.8,1.48h-1.1l-0.59-1.24h-0.18
			v1.24h-1V192.02z M47.64,193.48c0.23,0,0.35-0.14,0.35-0.32c0-0.2-0.12-0.31-0.35-0.31h-0.17v0.62H47.64z"/>
		<path class="st1" d="M50.25,194.33c0.1,0.19,0.3,0.35,0.48,0.35c0.16,0,0.22-0.07,0.22-0.16c0-0.36-1.43-0.37-1.43-1.49
			c0-0.67,0.49-1.09,1.22-1.09c0.81,0,1.11,0.58,1.2,0.85l-0.83,0.37c-0.07-0.15-0.16-0.32-0.4-0.32c-0.12,0-0.19,0.07-0.19,0.16
			c0,0.39,1.44,0.37,1.44,1.43c0,0.67-0.45,1.15-1.26,1.15c-0.83,0-1.2-0.61-1.29-0.85L50.25,194.33z"/>
		<path class="st1" d="M52.39,192.02h1v3.52h-1V192.02z"/>
		<path class="st1" d="M53.97,192.02h1.15c1.13,0,1.88,0.66,1.88,1.76c0,1.09-0.74,1.76-1.88,1.76h-1.15V192.02z M55.1,194.69
			c0.51,0,0.86-0.31,0.86-0.91c0-0.62-0.35-0.91-0.86-0.91h-0.13v1.83H55.1z"/>
		<path class="st1" d="M58.2,194.86l-0.21,0.67h-1.01l1.22-3.52h1.06l1.22,3.52h-1.01l-0.21-0.67H58.2z M58.73,193.05l-0.29,1.01
			h0.58L58.73,193.05z"/>
		<path class="st1" d="M60.79,192.02h1.15c1.13,0,1.88,0.66,1.88,1.76c0,1.09-0.74,1.76-1.88,1.76h-1.15V192.02z M61.91,194.69
			c0.51,0,0.86-0.31,0.86-0.91c0-0.62-0.35-0.91-0.86-0.91h-0.13v1.83H61.91z"/>
		<path class="st1" d="M65.23,192.02h1.37c0.75,0,1.19,0.46,1.19,1.17c0,0.69-0.46,1.18-1.17,1.18h-0.39v1.17h-1V192.02z
			 M66.44,193.53c0.21,0,0.32-0.15,0.32-0.35c0-0.19-0.12-0.33-0.31-0.33h-0.22v0.67H66.44z"/>
		<path class="st1" d="M68.16,192.02h1.97v0.87h-0.97v0.43h0.82v0.87h-0.82v0.47h1.01v0.87h-2.01V192.02z"/>
		<path class="st1" d="M70.67,192.02h1.24c0.87,0,1.29,0.42,1.29,1.11c0,0.38-0.16,0.74-0.46,0.93l0.8,1.48h-1.1l-0.59-1.24h-0.18
			v1.24h-1V192.02z M71.83,193.48c0.23,0,0.35-0.14,0.35-0.32c0-0.2-0.12-0.31-0.35-0.31h-0.17v0.62H71.83z"/>
		<path class="st1" d="M73.64,194.16v-2.14h1v2.15c0,0.33,0.21,0.53,0.53,0.53c0.33,0,0.53-0.21,0.53-0.53v-2.15h1v2.14
			c0,0.85-0.54,1.44-1.53,1.44C74.18,195.6,73.64,195.01,73.64,194.16z"/>
		<path class="st1" d="M77.98,194.86l-0.21,0.67h-1.01l1.22-3.52h1.06l1.22,3.52h-1l-0.21-0.67H77.98z M78.51,193.05l-0.29,1.01
			h0.58L78.51,193.05z"/>
		<path class="st1" d="M80.57,192.02h1.02l1.13,2v-2h0.98v3.52h-1l-1.16-1.97v1.97h-0.98V192.02z"/>
		<path class="st1" d="M85.23,194.86l-0.21,0.67h-1.01l1.22-3.52h1.06l1.22,3.52h-1l-0.21-0.67H85.23z M85.76,193.05l-0.29,1.01
			h0.58L85.76,193.05z"/>
		<path class="st1" d="M88.82,192.02h1v2.64h1.01v0.87h-2.01V192.02z"/>
		<path class="st1" d="M90.9,193.77c0-1.02,0.74-1.82,1.9-1.82c1.16,0,1.9,0.8,1.9,1.82c0,1.03-0.74,1.83-1.9,1.83
			C91.64,195.6,90.9,194.8,90.9,193.77z M91.94,193.77c0,0.53,0.34,0.91,0.85,0.91c0.51,0,0.85-0.39,0.85-0.91
			c0-0.51-0.34-0.9-0.85-0.9C92.28,192.87,91.94,193.26,91.94,193.77z"/>
		<path class="st1" d="M95.71,194.33c0.1,0.19,0.3,0.35,0.48,0.35c0.16,0,0.22-0.07,0.22-0.16c0-0.36-1.43-0.37-1.43-1.49
			c0-0.67,0.49-1.09,1.22-1.09c0.81,0,1.11,0.58,1.2,0.85l-0.83,0.37c-0.07-0.15-0.16-0.32-0.4-0.32c-0.12,0-0.19,0.07-0.19,0.16
			c0,0.39,1.44,0.37,1.44,1.43c0,0.67-0.45,1.15-1.26,1.15c-0.83,0-1.2-0.61-1.29-0.85L95.71,194.33z"/>
		<path class="st1" d="M99.8,194.86l-0.21,0.67h-1.01l1.22-3.52h1.06l1.22,3.52h-1l-0.21-0.67H99.8z M100.32,193.05l-0.29,1.01h0.58
			L100.32,193.05z"/>
		<path class="st1" d="M102.38,192.02h1.02l1.13,2v-2h0.98v3.52h-1l-1.16-1.97v1.97h-0.98V192.02z"/>
		<path class="st1" d="M106.1,192.02h1.15c1.13,0,1.88,0.66,1.88,1.76c0,1.09-0.74,1.76-1.88,1.76h-1.15V192.02z M107.22,194.69
			c0.51,0,0.86-0.31,0.86-0.91c0-0.62-0.35-0.91-0.86-0.91h-0.13v1.83H107.22z"/>
		<path class="st1" d="M109.53,192.02h1.97v0.87h-0.97v0.43h0.82v0.87h-0.82v0.47h1.01v0.87h-2.01V192.02z"/>
		<path class="st1" d="M112.64,194.33c0.1,0.19,0.3,0.35,0.48,0.35c0.16,0,0.22-0.07,0.22-0.16c0-0.36-1.43-0.37-1.43-1.49
			c0-0.67,0.49-1.09,1.22-1.09c0.81,0,1.11,0.58,1.2,0.85l-0.83,0.37c-0.07-0.15-0.16-0.32-0.4-0.32c-0.12,0-0.19,0.07-0.19,0.16
			c0,0.39,1.44,0.37,1.44,1.43c0,0.67-0.45,1.15-1.26,1.15c-0.83,0-1.2-0.61-1.29-0.85L112.64,194.33z"/>
	</g>
</g>
<rect x="-97.58" y="519.44" transform="matrix(-1.836970e-16 1 -1 -1.836970e-16 717.6029 571.8675)" class="st0" width="340.9" height="250.58"/>
<path d="M135.49,628.38v-57.04c0-5.32-2.81-10.24-7.38-12.95L80.52,530.2c-4.73-2.8-10.61-2.8-15.34,0l-47.59,28.18
	c-4.58,2.71-7.38,7.63-7.38,12.95v57.04c0,5.32,2.81,10.24,7.38,12.95l47.62,28.2c4.71,2.79,10.57,2.79,15.28,0l47.62-28.2
	C132.68,638.62,135.49,633.69,135.49,628.38z"/>
<g>
	<path class="st0" d="M86.2,618.61c0.09-0.01-0.76,0.86-1.22,1.36l-0.49,0.54c-1.92,2.24-3.25,5.03-3.7,8.16
		c-0.34,2.36-0.15,4.68,0.48,6.83l0,0c0.19,0.65,0.42,1.28,0.69,1.9c0.59-2.29,1.67-4.35,3.09-6.1c0.05-0.06,0.09-0.11,0.14-0.17
		c0.23-0.28,0.48-0.55,0.73-0.81l3.8-4.24c-0.09,0.01,0.76-0.87,1.22-1.36l0.48-0.54c1.92-2.24,3.24-5.03,3.69-8.16
		c0.34-2.34,0.15-4.64-0.47-6.77L86.2,618.61z"/>
	<path class="st0" d="M96.16,583.17c-0.19-0.65-0.42-1.28-0.69-1.9c-0.59,2.29-1.66,4.36-3.08,6.11
		c-9.53,10.61-18.52,20.59-18.52,20.59l-1.53,1.7l-0.04,0.04c-1.76,2.18-3.12,4.69-3.98,7.43c-0.2,0.64-0.37,1.29-0.51,1.94
		c-0.07,0.31-0.13,0.63-0.18,0.94c-0.41,3.64-0.01,6.72,0.42,8.67c-1.33-0.73-2.6-1.6-3.77-2.6v0c-0.44-0.38-0.88-0.78-1.29-1.19
		c-4.18-4.18-6.49-9.74-6.49-15.66c0-2.81,0.52-5.55,1.52-8.09c0.3-0.77,0.64-1.52,1.03-2.25c0.35-0.65,2.11-3.36,2.11-3.36
		l1.82-2.73l8.29-12.43l1.01-1.52l0.4-0.6c0.01-0.02,0.03-0.05,0.04-0.07l0.01-0.02c0.02-0.04,0.05-0.08,0.07-0.12
		c0.07-0.11,0.13-0.21,0.19-0.32c0.03-0.05,0.06-0.1,0.08-0.15c0.06-0.11,0.12-0.22,0.18-0.33c0.03-0.05,0.05-0.1,0.08-0.15
		c0.06-0.11,0.12-0.22,0.17-0.34c0.03-0.05,0.05-0.11,0.08-0.16c0.05-0.11,0.11-0.23,0.16-0.34c0.02-0.05,0.05-0.11,0.07-0.17
		c0.05-0.11,0.1-0.23,0.15-0.34c0.02-0.06,0.05-0.12,0.07-0.17c0.05-0.11,0.09-0.23,0.13-0.34c0.02-0.06,0.04-0.12,0.07-0.18
		c0.04-0.11,0.08-0.23,0.12-0.34c0.02-0.07,0.04-0.13,0.06-0.2c0.04-0.11,0.07-0.22,0.1-0.33c0.02-0.07,0.04-0.14,0.06-0.21
		c0.03-0.11,0.06-0.22,0.09-0.33c0.02-0.08,0.04-0.15,0.05-0.23c0.03-0.11,0.05-0.21,0.08-0.32c0.02-0.08,0.03-0.17,0.05-0.25
		c0.02-0.1,0.04-0.2,0.06-0.31c0.02-0.09,0.03-0.18,0.04-0.27c0.02-0.1,0.03-0.19,0.05-0.29c0.01-0.1,0.03-0.2,0.04-0.3
		c0.01-0.09,0.02-0.18,0.03-0.27c0.01-0.11,0.02-0.22,0.03-0.34c0.01-0.08,0.02-0.16,0.02-0.24c0.01-0.14,0.02-0.27,0.02-0.41
		c0-0.06,0.01-0.12,0.01-0.17c0.01-0.2,0.01-0.39,0.01-0.59c0-2.39-0.63-4.65-1.56-6.69c-0.06-0.13-0.62-1.22-0.83-1.56
		c-0.04-0.07-0.09-0.14-0.13-0.22c-0.03,0.29-0.07,0.59-0.12,0.87c-0.02,0.14-0.05,0.29-0.08,0.43c-0.03,0.17-0.07,0.34-0.11,0.51
		c-0.38,1.67-0.92,3.24-1.77,4.67c-0.11,0.18-0.22,0.35-0.33,0.53c-0.09,0.14-0.19,0.28-0.28,0.41c-0.09,0.12-0.17,0.25-0.26,0.37
		l-0.7,1.05l-10.47,15.7l-2.33,3.49l-2.02,3.02l-0.41,0.61l-0.28,0.42c-0.44,0.69-0.85,1.4-1.24,2.13
		c-0.38,0.73-0.74,1.48-1.06,2.24c-1.55,3.67-2.34,7.57-2.34,11.59c0,0.35,0.01,0.71,0.02,1.06c0.03,0.72,0.08,1.44,0.15,2.15
		c0.04,0.35,0.08,0.71,0.13,1.06c0.36,2.52,1.04,4.97,2.04,7.33c0.66,1.55,1.44,3.03,2.33,4.44c0.13,0.2,0.26,0.4,0.39,0.6
		c1.07,1.58,2.29,3.06,3.65,4.43c0.23,0.23,0.46,0.45,0.7,0.67c0.08,0.07,0.15,0.14,0.23,0.21c0.16,0.15,0.33,0.3,0.49,0.44
		c0.09,0.08,0.18,0.16,0.27,0.23c0.17,0.14,0.34,0.28,0.51,0.42c0.08,0.07,0.16,0.14,0.24,0.2c0.23,0.18,0.46,0.36,0.7,0.54
		c0.12,0.09,0.24,0.18,0.36,0.27c0.13,0.1,0.26,0.19,0.39,0.28c0.14,0.1,0.27,0.19,0.41,0.28c0.12,0.08,0.24,0.16,0.36,0.24
		c0.14,0.1,0.29,0.19,0.43,0.28c0,0,0.01,0.01,0.01,0.01c0.2,0.14,0.41,0.26,0.63,0.39c0.02,0.01,0.03,0.02,0.05,0.03
		c0.07,0.04,0.15,0.09,0.22,0.13c0.22,0.13,0.45,0.26,0.67,0.38c0,0,0,0,0,0c0.04,0.02,0.08,0.05,0.12,0.07l0,0
		c0.09,0.05,0.18,0.09,0.27,0.14c0.35,0.18,0.69,0.36,1.05,0.54c0.03,0.01,0.06,0.03,0.08,0.04c0.42,0.2,0.85,0.39,1.28,0.58
		c0.02,0.01,0.04,0.01,0.06,0.02c1.78,0.75,3.62,1.32,5.49,1.71c0,0,0,0,0,0l0,0c0,0,0,0,0,0c0.17,0.04,0.35,0.07,0.52,0.1l0,0l0,0
		c-1.03-2.62-1.55-5.42-1.53-8.26c0-0.01,0-0.02,0-0.03c0-0.05,0-0.09,0-0.14c0.02-0.94,0.09-1.88,0.22-2.83
		c0.02-0.13,0.04-0.25,0.06-0.38c0.68-4.23,2.53-8.09,5.33-11.22c0.02-0.02,0.03-0.03,0.05-0.05l8.59-9.58l4.22-4.7l0.47-0.53
		c0.62-0.73,0.76-0.87,1.22-1.36l0.48-0.54c1.92-2.24,3.97-5.77,4.42-8.9C96.99,587.63,96.8,585.32,96.16,583.17z"/>
	<path class="st0" d="M88.66,587.59c0,0-1.3-1.44-2.18-2.94c-0.86-1.48-1.37-3.54-1.37-3.56c0,0-0.11-0.27-0.32-0.33
		c-0.36-0.14-0.57,0.18-0.68,0.36c-1.14,1.92-4.06,6.78-6.65,10.42c-2.42,3.41-5.2,6.98-7.1,9.38c-0.24,0.3-1.89,2.36-1.89,2.36
		l-0.01,0.01c-2.94,3.95-4.61,8.64-4.81,13.58c-0.11,2.66,1.59,7.64,1.59,7.64c-0.51-2.67-0.69-5.05-0.59-7.6
		c0.19-4.73,1.79-9.24,4.61-13.02c0.11-0.13,1.65-2.06,1.89-2.35c1.91-2.4,4.73-6.34,7.16-9.77c2.3-3.24,4.86-7.42,6.22-9.69
		c0.22,0.64,0.59,1.68,1.13,2.55C86.6,586.13,88.66,587.6,88.66,587.59L88.66,587.59z"/>
	<path class="st0" d="M82.25,582.73c-0.32-0.58-1.03-1.93-1.45-2.89c-0.66-1.49-0.93-2.51-0.94-2.53c0,0-0.13-0.26-0.33-0.31
		c-0.37-0.12-0.56,0.21-0.66,0.39c-1.03,1.98-3.7,6.99-6.09,10.76c-2.24,3.54-4.82,7.25-6.59,9.74c-0.23,0.32-1.76,2.45-1.76,2.45
		l-0.01,0.01c-2.73,4.1-3.86,8.59-3.8,13.53c0.03,2.66,1.7,7.4,1.7,7.4c-0.65-2.63-0.96-4.57-0.99-7.13
		c-0.06-4.74,1.3-9.32,3.91-13.25c0.1-0.14,1.54-2.14,1.76-2.45c1.78-2.5,4.23-6.52,6.48-10.07c2.12-3.35,4.6-7.96,5.84-10.29
		c0.26,0.63,0.52,1.17,0.96,2.09C81,581.7,82.25,582.73,82.25,582.73z"/>
</g>
<g>
	<g>
		<path d="M-10.69,729.77v-29.84H3.25v29.91c0,4.55,2.87,7.42,7.42,7.42c4.55,0,7.42-2.87,7.42-7.42v-29.91h13.94v29.84
			c0,11.84-7.56,20.1-21.36,20.1S-10.69,741.61-10.69,729.77z"/>
		<path d="M40.16,699.94h19.12c10.44,0,16.53,6.44,16.53,16.32c0,9.67-6.44,16.46-16.32,16.46H54.1v16.25H40.16V699.94z
			 M57.04,721.02c2.94,0,4.48-2.03,4.48-4.83c0-2.66-1.68-4.55-4.34-4.55H54.1v9.38H57.04z"/>
		<path d="M81.06,699.94H95v36.84h14.08v12.19H81.06V699.94z"/>
		<path d="M128.47,739.58l-2.94,9.39h-14.01l16.95-49.03h14.71l16.95,49.03h-14.01l-2.94-9.39H128.47z M135.83,714.36l-4.06,14.08
			h8.12L135.83,714.36z"/>
	</g>
	<g>
		<path d="M-10.69,758.52v-4.41h2.06v4.42c0,0.67,0.42,1.1,1.1,1.1s1.1-0.42,1.1-1.1v-4.42h2.06v4.41c0,1.75-1.12,2.97-3.16,2.97
			S-10.69,760.27-10.69,758.52z"/>
		<path d="M-3.18,754.12h2.1l2.33,4.11v-4.11h2.03v7.24H1.23l-2.39-4.04v4.04h-2.02V754.12z"/>
		<path d="M4.48,754.12h2.06v7.24H4.48V754.12z"/>
		<path d="M9.8,761.36l-2.63-7.24h2.26l1.5,4.86l1.49-4.86h2.26l-2.63,7.24H9.8z"/>
		<path d="M15.32,754.12h4.06v1.8h-2v0.89h1.69v1.79h-1.69v0.96h2.08v1.8h-4.14V754.12z"/>
		<path d="M20.47,754.12h2.56c1.8,0,2.66,0.87,2.66,2.29c0,0.78-0.33,1.52-0.95,1.91l1.66,3.04h-2.27l-1.22-2.56h-0.37v2.56h-2.06
			V754.12z M22.87,757.13c0.47,0,0.71-0.28,0.71-0.65c0-0.4-0.25-0.63-0.71-0.63h-0.34v1.28H22.87z"/>
		<path d="M28.25,758.89c0.21,0.38,0.62,0.71,0.99,0.71c0.32,0,0.46-0.13,0.46-0.32c0-0.73-2.95-0.75-2.95-3.06
			c0-1.38,1-2.24,2.5-2.24c1.67,0,2.28,1.19,2.47,1.76l-1.71,0.77c-0.14-0.3-0.32-0.66-0.82-0.66c-0.25,0-0.39,0.13-0.39,0.33
			c0,0.81,2.97,0.77,2.97,2.95c0,1.39-0.92,2.37-2.6,2.37c-1.71,0-2.46-1.25-2.65-1.76L28.25,758.89z"/>
		<path d="M32.65,754.12h2.06v7.24h-2.06V754.12z"/>
		<path d="M35.91,754.12h2.36c2.33,0,3.87,1.36,3.87,3.62c0,2.23-1.52,3.62-3.87,3.62h-2.36V754.12z M38.23,759.62
			c1.06,0,1.77-0.63,1.77-1.88c0-1.27-0.71-1.88-1.77-1.88h-0.26v3.77H38.23z"/>
		<path d="M44.62,759.97l-0.43,1.39h-2.07l2.5-7.24h2.17l2.5,7.24h-2.07l-0.43-1.39H44.62z M45.71,756.25l-0.6,2.08h1.2
			L45.71,756.25z"/>
		<path d="M49.94,754.12h2.36c2.33,0,3.87,1.36,3.87,3.62c0,2.23-1.52,3.62-3.87,3.62h-2.36V754.12z M52.25,759.62
			c1.06,0,1.77-0.63,1.77-1.88c0-1.27-0.71-1.88-1.77-1.88H52v3.77H52.25z"/>
		<path d="M59.08,754.12h2.82c1.54,0,2.44,0.95,2.44,2.41c0,1.43-0.95,2.43-2.41,2.43h-0.8v2.4h-2.06V754.12z M61.57,757.23
			c0.43,0,0.66-0.3,0.66-0.71c0-0.39-0.25-0.67-0.64-0.67h-0.46v1.39H61.57z"/>
		<path d="M65.12,754.12h4.06v1.8h-2v0.89h1.69v1.79h-1.69v0.96h2.08v1.8h-4.14V754.12z"/>
		<path d="M70.27,754.12h2.56c1.8,0,2.66,0.87,2.66,2.29c0,0.78-0.33,1.52-0.95,1.91l1.66,3.04h-2.27l-1.22-2.56h-0.37v2.56h-2.06
			V754.12z M72.67,757.13c0.47,0,0.71-0.28,0.71-0.65c0-0.4-0.25-0.63-0.71-0.63h-0.34v1.28H72.67z"/>
		<path d="M76.4,758.52v-4.41h2.06v4.42c0,0.67,0.42,1.1,1.1,1.1c0.67,0,1.1-0.42,1.1-1.1v-4.42h2.06v4.41
			c0,1.75-1.12,2.97-3.16,2.97S76.4,760.27,76.4,758.52z"/>
		<path d="M85.33,759.97l-0.43,1.39h-2.07l2.5-7.24h2.17l2.5,7.24h-2.07l-0.43-1.39H85.33z M86.42,756.25l-0.6,2.08h1.2
			L86.42,756.25z"/>
		<path d="M90.65,754.12h2.1l2.33,4.11v-4.11h2.03v7.24h-2.05l-2.39-4.04v4.04h-2.02V754.12z"/>
		<path d="M100.25,759.97l-0.43,1.39h-2.07l2.5-7.24h2.17l2.5,7.24h-2.07l-0.43-1.39H100.25z M101.33,756.25l-0.6,2.08h1.2
			L101.33,756.25z"/>
		<path d="M107.63,754.12h2.06v5.44h2.08v1.8h-4.14V754.12z"/>
		<path d="M111.92,757.73c0-2.09,1.52-3.75,3.91-3.75s3.91,1.66,3.91,3.75c0,2.12-1.52,3.77-3.91,3.77S111.92,759.85,111.92,757.73z
			 M114.07,757.73c0,1.09,0.7,1.88,1.76,1.88c1.06,0,1.76-0.8,1.76-1.88c0-1.05-0.7-1.86-1.76-1.86
			C114.77,755.86,114.07,756.67,114.07,757.73z"/>
		<path d="M121.81,758.89c0.21,0.38,0.62,0.71,0.99,0.71c0.32,0,0.46-0.13,0.46-0.32c0-0.73-2.95-0.75-2.95-3.06
			c0-1.38,1-2.24,2.5-2.24c1.67,0,2.28,1.19,2.47,1.76l-1.71,0.77c-0.14-0.3-0.32-0.66-0.82-0.66c-0.25,0-0.39,0.13-0.39,0.33
			c0,0.81,2.97,0.77,2.97,2.95c0,1.39-0.92,2.37-2.6,2.37c-1.71,0-2.46-1.25-2.65-1.76L121.81,758.89z"/>
		<path d="M130.23,759.97l-0.43,1.39h-2.07l2.5-7.24h2.17l2.5,7.24h-2.07l-0.43-1.39H130.23z M131.32,756.25l-0.6,2.08h1.2
			L131.32,756.25z"/>
		<path d="M135.55,754.12h2.1l2.33,4.11v-4.11H142v7.24h-2.05l-2.39-4.04v4.04h-2.02V754.12z"/>
		<path d="M143.2,754.12h2.36c2.33,0,3.87,1.36,3.87,3.62c0,2.23-1.52,3.62-3.87,3.62h-2.36V754.12z M145.52,759.62
			c1.06,0,1.77-0.63,1.77-1.88c0-1.27-0.71-1.88-1.77-1.88h-0.26v3.77H145.52z"/>
		<path d="M150.28,754.12h4.06v1.8h-2v0.89h1.69v1.79h-1.69v0.96h2.08v1.8h-4.14V754.12z"/>
		<path d="M156.67,758.89c0.21,0.38,0.62,0.71,0.99,0.71c0.32,0,0.46-0.13,0.46-0.32c0-0.73-2.95-0.75-2.95-3.06
			c0-1.38,1-2.24,2.5-2.24c1.67,0,2.28,1.19,2.47,1.76l-1.71,0.77c-0.14-0.3-0.32-0.66-0.82-0.66c-0.25,0-0.39,0.13-0.39,0.33
			c0,0.81,2.97,0.77,2.97,2.95c0,1.39-0.92,2.37-2.6,2.37c-1.71,0-2.46-1.25-2.65-1.76L156.67,758.89z"/>
	</g>
</g>
<rect x="-97.58" y="939.44" transform="matrix(-1.836970e-16 1 -1 -1.836970e-16 1137.6029 991.8675)" width="340.9" height="250.58"/>
<g>
	<g>
		<path class="st0" d="M-10.69,1149.77v-29.84H3.25v29.91c0,4.55,2.87,7.42,7.42,7.42c4.55,0,7.42-2.87,7.42-7.42v-29.91h13.94
			v29.84c0,11.84-7.56,20.1-21.36,20.1S-10.69,1161.61-10.69,1149.77z"/>
		<path class="st0" d="M40.16,1119.94h19.12c10.44,0,16.53,6.44,16.53,16.32c0,9.67-6.44,16.46-16.32,16.46H54.1v16.25H40.16
			V1119.94z M57.04,1141.02c2.94,0,4.48-2.03,4.48-4.83c0-2.66-1.68-4.55-4.34-4.55H54.1v9.38H57.04z"/>
		<path class="st0" d="M81.06,1119.94H95v36.84h14.08v12.19H81.06V1119.94z"/>
		<path class="st0" d="M128.47,1159.58l-2.94,9.39h-14.01l16.95-49.03h14.71l16.95,49.03h-14.01l-2.94-9.39H128.47z M135.83,1134.36
			l-4.06,14.08h8.12L135.83,1134.36z"/>
	</g>
	<g>
		<path class="st0" d="M-10.69,1178.52v-4.41h2.06v4.42c0,0.67,0.42,1.1,1.1,1.1s1.1-0.42,1.1-1.1v-4.42h2.06v4.41
			c0,1.75-1.12,2.97-3.16,2.97S-10.69,1180.27-10.69,1178.52z"/>
		<path class="st0" d="M-3.18,1174.12h2.1l2.33,4.11v-4.11h2.03v7.24H1.23l-2.39-4.04v4.04h-2.02V1174.12z"/>
		<path class="st0" d="M4.48,1174.12h2.06v7.24H4.48V1174.12z"/>
		<path class="st0" d="M9.8,1181.36l-2.63-7.24h2.26l1.5,4.86l1.49-4.86h2.26l-2.63,7.24H9.8z"/>
		<path class="st0" d="M15.32,1174.12h4.06v1.8h-2v0.89h1.69v1.79h-1.69v0.96h2.08v1.8h-4.14V1174.12z"/>
		<path class="st0" d="M20.47,1174.12h2.56c1.8,0,2.66,0.87,2.66,2.29c0,0.78-0.33,1.52-0.95,1.91l1.66,3.04h-2.27l-1.22-2.56h-0.37
			v2.56h-2.06V1174.12z M22.87,1177.13c0.47,0,0.71-0.28,0.71-0.65c0-0.4-0.25-0.63-0.71-0.63h-0.34v1.28H22.87z"/>
		<path class="st0" d="M28.25,1178.89c0.21,0.38,0.62,0.71,0.99,0.71c0.32,0,0.46-0.13,0.46-0.32c0-0.73-2.95-0.75-2.95-3.06
			c0-1.38,1-2.24,2.5-2.24c1.67,0,2.28,1.19,2.47,1.76l-1.71,0.77c-0.14-0.3-0.32-0.66-0.82-0.66c-0.25,0-0.39,0.13-0.39,0.33
			c0,0.81,2.97,0.77,2.97,2.95c0,1.39-0.92,2.37-2.6,2.37c-1.71,0-2.46-1.25-2.65-1.76L28.25,1178.89z"/>
		<path class="st0" d="M32.65,1174.12h2.06v7.24h-2.06V1174.12z"/>
		<path class="st0" d="M35.91,1174.12h2.36c2.33,0,3.87,1.36,3.87,3.62c0,2.23-1.52,3.62-3.87,3.62h-2.36V1174.12z M38.23,1179.62
			c1.06,0,1.77-0.63,1.77-1.88c0-1.27-0.71-1.88-1.77-1.88h-0.26v3.77H38.23z"/>
		<path class="st0" d="M44.62,1179.97l-0.43,1.39h-2.07l2.5-7.24h2.17l2.5,7.24h-2.07l-0.43-1.39H44.62z M45.71,1176.25l-0.6,2.08
			h1.2L45.71,1176.25z"/>
		<path class="st0" d="M49.94,1174.12h2.36c2.33,0,3.87,1.36,3.87,3.62c0,2.23-1.52,3.62-3.87,3.62h-2.36V1174.12z M52.25,1179.62
			c1.06,0,1.77-0.63,1.77-1.88c0-1.27-0.71-1.88-1.77-1.88H52v3.77H52.25z"/>
		<path class="st0" d="M59.08,1174.12h2.82c1.54,0,2.44,0.95,2.44,2.41c0,1.43-0.95,2.43-2.41,2.43h-0.8v2.4h-2.06V1174.12z
			 M61.57,1177.23c0.43,0,0.66-0.3,0.66-0.71c0-0.39-0.25-0.67-0.64-0.67h-0.46v1.39H61.57z"/>
		<path class="st0" d="M65.12,1174.12h4.06v1.8h-2v0.89h1.69v1.79h-1.69v0.96h2.08v1.8h-4.14V1174.12z"/>
		<path class="st0" d="M70.27,1174.12h2.56c1.8,0,2.66,0.87,2.66,2.29c0,0.78-0.33,1.52-0.95,1.91l1.66,3.04h-2.27l-1.22-2.56h-0.37
			v2.56h-2.06V1174.12z M72.67,1177.13c0.47,0,0.71-0.28,0.71-0.65c0-0.4-0.25-0.63-0.71-0.63h-0.34v1.28H72.67z"/>
		<path class="st0" d="M76.4,1178.52v-4.41h2.06v4.42c0,0.67,0.42,1.1,1.1,1.1c0.67,0,1.1-0.42,1.1-1.1v-4.42h2.06v4.41
			c0,1.75-1.12,2.97-3.16,2.97S76.4,1180.27,76.4,1178.52z"/>
		<path class="st0" d="M85.33,1179.97l-0.43,1.39h-2.07l2.5-7.24h2.17l2.5,7.24h-2.07l-0.43-1.39H85.33z M86.42,1176.25l-0.6,2.08
			h1.2L86.42,1176.25z"/>
		<path class="st0" d="M90.65,1174.12h2.1l2.33,4.11v-4.11h2.03v7.24h-2.05l-2.39-4.04v4.04h-2.02V1174.12z"/>
		<path class="st0" d="M100.25,1179.97l-0.43,1.39h-2.07l2.5-7.24h2.17l2.5,7.24h-2.07l-0.43-1.39H100.25z M101.33,1176.25
			l-0.6,2.08h1.2L101.33,1176.25z"/>
		<path class="st0" d="M107.63,1174.12h2.06v5.44h2.08v1.8h-4.14V1174.12z"/>
		<path class="st0" d="M111.92,1177.73c0-2.09,1.52-3.75,3.91-3.75s3.91,1.66,3.91,3.75c0,2.12-1.52,3.77-3.91,3.77
			S111.92,1179.85,111.92,1177.73z M114.07,1177.73c0,1.09,0.7,1.88,1.76,1.88c1.06,0,1.76-0.8,1.76-1.88c0-1.05-0.7-1.86-1.76-1.86
			C114.77,1175.86,114.07,1176.67,114.07,1177.73z"/>
		<path class="st0" d="M121.81,1178.89c0.21,0.38,0.62,0.71,0.99,0.71c0.32,0,0.46-0.13,0.46-0.32c0-0.73-2.95-0.75-2.95-3.06
			c0-1.38,1-2.24,2.5-2.24c1.67,0,2.28,1.19,2.47,1.76l-1.71,0.77c-0.14-0.3-0.32-0.66-0.82-0.66c-0.25,0-0.39,0.13-0.39,0.33
			c0,0.81,2.97,0.77,2.97,2.95c0,1.39-0.92,2.37-2.6,2.37c-1.71,0-2.46-1.25-2.65-1.76L121.81,1178.89z"/>
		<path class="st0" d="M130.23,1179.97l-0.43,1.39h-2.07l2.5-7.24h2.17l2.5,7.24h-2.07l-0.43-1.39H130.23z M131.32,1176.25
			l-0.6,2.08h1.2L131.32,1176.25z"/>
		<path class="st0" d="M135.55,1174.12h2.1l2.33,4.11v-4.11H142v7.24h-2.05l-2.39-4.04v4.04h-2.02V1174.12z"/>
		<path class="st0" d="M143.2,1174.12h2.36c2.33,0,3.87,1.36,3.87,3.62c0,2.23-1.52,3.62-3.87,3.62h-2.36V1174.12z M145.52,1179.62
			c1.06,0,1.77-0.63,1.77-1.88c0-1.27-0.71-1.88-1.77-1.88h-0.26v3.77H145.52z"/>
		<path class="st0" d="M150.28,1174.12h4.06v1.8h-2v0.89h1.69v1.79h-1.69v0.96h2.08v1.8h-4.14V1174.12z"/>
		<path class="st0" d="M156.67,1178.89c0.21,0.38,0.62,0.71,0.99,0.71c0.32,0,0.46-0.13,0.46-0.32c0-0.73-2.95-0.75-2.95-3.06
			c0-1.38,1-2.24,2.5-2.24c1.67,0,2.28,1.19,2.47,1.76l-1.71,0.77c-0.14-0.3-0.32-0.66-0.82-0.66c-0.25,0-0.39,0.13-0.39,0.33
			c0,0.81,2.97,0.77,2.97,2.95c0,1.39-0.92,2.37-2.6,2.37c-1.71,0-2.46-1.25-2.65-1.76L156.67,1178.89z"/>
	</g>
</g>
<path class="st0" d="M128.1,1061.32l-47.62,28.2c-4.71,2.79-10.57,2.79-15.28,0l-47.62-28.2c-4.58-2.71-7.38-7.63-7.38-12.95v-57.04
	c0-5.32,2.81-10.24,7.38-12.95l47.59-28.18c4.73-2.8,10.61-2.8,15.34,0l47.59,28.18c4.58,2.71,7.38,7.63,7.38,12.95v57.04
	C135.48,1053.69,132.68,1058.61,128.1,1061.32z M78.49,1086.16l47.62-28.2c3.37-2,5.46-5.67,5.46-9.58v-57.04
	c0-3.92-2.09-7.59-5.46-9.58l-47.59-28.18c-1.72-1.02-3.68-1.55-5.68-1.55s-3.96,0.54-5.68,1.55l-47.59,28.18
	c-3.37,2-5.46,5.67-5.46,9.58v57.04c0,3.92,2.09,7.59,5.46,9.58l47.62,28.2c1.71,1.01,3.66,1.55,5.65,1.55
	S76.78,1087.17,78.49,1086.16z"/>
<g>
	<path class="st0" d="M86.19,1038.6c0.09-0.01-0.76,0.86-1.22,1.36l-0.49,0.54c-1.92,2.24-3.25,5.03-3.7,8.16
		c-0.34,2.36-0.15,4.68,0.48,6.83l0,0c0.19,0.65,0.42,1.28,0.69,1.9c0.59-2.29,1.67-4.35,3.09-6.1c0.05-0.06,0.09-0.11,0.14-0.17
		c0.23-0.28,0.48-0.55,0.73-0.81l3.8-4.24c-0.09,0.01,0.76-0.87,1.22-1.36l0.48-0.54c1.92-2.24,3.24-5.03,3.69-8.16
		c0.34-2.34,0.15-4.64-0.47-6.77L86.19,1038.6z"/>
	<path class="st0" d="M96.16,1003.16c-0.19-0.65-0.42-1.28-0.69-1.9c-0.59,2.29-1.66,4.36-3.08,6.11
		c-9.53,10.61-18.52,20.59-18.52,20.59l-1.53,1.7l-0.04,0.04c-1.76,2.18-3.12,4.69-3.98,7.43c-0.2,0.64-0.37,1.29-0.51,1.94
		c-0.07,0.31-0.13,0.63-0.18,0.94c-0.41,3.64-0.01,6.72,0.42,8.67c-1.33-0.73-2.6-1.6-3.77-2.6l0,0c-0.44-0.38-0.88-0.78-1.29-1.19
		c-4.18-4.18-6.49-9.74-6.49-15.66c0-2.81,0.52-5.55,1.52-8.09c0.3-0.77,0.64-1.52,1.03-2.25c0.35-0.65,2.11-3.36,2.11-3.36
		l1.82-2.73l8.29-12.43l1.01-1.52l0.4-0.6c0.01-0.02,0.03-0.05,0.04-0.07l0.01-0.02c0.02-0.04,0.05-0.08,0.07-0.12
		c0.07-0.11,0.13-0.21,0.19-0.32c0.03-0.05,0.06-0.1,0.08-0.15c0.06-0.11,0.12-0.22,0.18-0.33c0.03-0.05,0.05-0.1,0.08-0.15
		c0.06-0.11,0.12-0.22,0.17-0.34c0.03-0.05,0.05-0.11,0.08-0.16c0.05-0.11,0.11-0.23,0.16-0.34c0.02-0.05,0.05-0.11,0.07-0.17
		c0.05-0.11,0.1-0.23,0.15-0.34c0.02-0.06,0.05-0.12,0.07-0.18c0.05-0.11,0.09-0.23,0.13-0.34c0.02-0.06,0.04-0.12,0.07-0.18
		c0.04-0.11,0.08-0.23,0.12-0.34c0.02-0.07,0.04-0.13,0.06-0.2c0.04-0.11,0.07-0.22,0.1-0.33c0.02-0.07,0.04-0.14,0.06-0.21
		c0.03-0.11,0.06-0.22,0.09-0.33c0.02-0.08,0.04-0.15,0.05-0.23c0.03-0.11,0.05-0.21,0.08-0.32c0.02-0.08,0.03-0.17,0.05-0.25
		c0.02-0.1,0.04-0.2,0.06-0.31c0.02-0.09,0.03-0.18,0.04-0.27c0.02-0.1,0.03-0.19,0.05-0.29c0.01-0.1,0.03-0.2,0.04-0.3
		c0.01-0.09,0.02-0.18,0.03-0.27c0.01-0.11,0.02-0.22,0.03-0.34c0.01-0.08,0.02-0.16,0.02-0.24c0.01-0.14,0.02-0.27,0.02-0.41
		c0-0.06,0.01-0.12,0.01-0.17c0.01-0.2,0.01-0.39,0.01-0.59c0-2.39-0.63-4.65-1.56-6.69c-0.06-0.13-0.62-1.22-0.83-1.56
		c-0.04-0.07-0.09-0.14-0.13-0.22c-0.03,0.29-0.07,0.59-0.12,0.87c-0.02,0.14-0.05,0.29-0.08,0.43c-0.03,0.17-0.07,0.34-0.11,0.51
		c-0.38,1.67-0.92,3.24-1.77,4.67c-0.11,0.18-0.22,0.35-0.33,0.53c-0.09,0.14-0.19,0.28-0.28,0.41c-0.09,0.12-0.17,0.25-0.26,0.37
		l-0.7,1.05l-10.47,15.7l-2.33,3.49l-2.02,3.02l-0.41,0.61l-0.28,0.42c-0.44,0.69-0.85,1.4-1.24,2.13
		c-0.38,0.73-0.74,1.48-1.06,2.24c-1.55,3.67-2.34,7.57-2.34,11.59c0,0.35,0.01,0.71,0.02,1.06c0.03,0.72,0.08,1.44,0.15,2.15
		c0.04,0.35,0.08,0.71,0.13,1.06c0.36,2.52,1.04,4.97,2.04,7.33c0.66,1.55,1.44,3.03,2.33,4.44c0.13,0.2,0.26,0.4,0.39,0.6
		c1.07,1.58,2.29,3.06,3.65,4.43c0.23,0.23,0.46,0.45,0.7,0.67c0.08,0.07,0.15,0.14,0.23,0.21c0.16,0.15,0.33,0.3,0.49,0.44
		c0.09,0.08,0.18,0.16,0.27,0.23c0.17,0.14,0.34,0.28,0.51,0.42c0.08,0.07,0.16,0.14,0.24,0.2c0.23,0.18,0.46,0.36,0.7,0.54
		c0.12,0.09,0.24,0.18,0.36,0.27c0.13,0.1,0.26,0.19,0.39,0.28c0.14,0.1,0.27,0.19,0.41,0.28c0.12,0.08,0.24,0.16,0.36,0.24
		c0.14,0.1,0.29,0.19,0.43,0.28c0,0,0.01,0.01,0.01,0.01c0.2,0.14,0.41,0.26,0.63,0.39c0.02,0.01,0.03,0.02,0.05,0.03
		c0.07,0.04,0.15,0.09,0.22,0.13c0.22,0.13,0.45,0.26,0.67,0.38c0,0,0,0,0,0c0.04,0.02,0.08,0.05,0.12,0.07l0,0
		c0.09,0.05,0.18,0.09,0.27,0.14c0.35,0.18,0.69,0.36,1.05,0.54c0.03,0.01,0.06,0.03,0.08,0.04c0.42,0.2,0.85,0.39,1.28,0.58
		c0.02,0.01,0.04,0.01,0.06,0.02c1.78,0.75,3.62,1.32,5.49,1.71c0,0,0,0,0,0l0,0c0,0,0,0,0,0c0.17,0.04,0.35,0.07,0.52,0.1l0,0l0,0
		c-1.03-2.62-1.55-5.42-1.53-8.26c0-0.01,0-0.02,0-0.03c0-0.05,0-0.09,0-0.14c0.02-0.94,0.09-1.88,0.22-2.83
		c0.02-0.13,0.04-0.25,0.06-0.38c0.68-4.23,2.53-8.09,5.33-11.22c0.02-0.02,0.03-0.03,0.05-0.05l8.59-9.58l4.22-4.7l0.47-0.53
		c0.62-0.73,0.76-0.87,1.22-1.36l0.48-0.54c1.92-2.24,3.97-5.77,4.42-8.9C96.99,1007.63,96.79,1005.31,96.16,1003.16z"/>
	<path class="st0" d="M88.66,1007.58c0,0-1.3-1.44-2.18-2.94c-0.86-1.48-1.37-3.54-1.37-3.56c0,0-0.11-0.27-0.32-0.33
		c-0.36-0.14-0.57,0.18-0.68,0.36c-1.14,1.92-4.06,6.78-6.65,10.42c-2.42,3.41-5.2,6.98-7.1,9.38c-0.24,0.3-1.89,2.36-1.89,2.36
		l-0.01,0.01c-2.94,3.95-4.61,8.64-4.81,13.58c-0.11,2.66,1.59,7.64,1.59,7.64c-0.51-2.67-0.69-5.05-0.59-7.6
		c0.19-4.73,1.79-9.24,4.61-13.02c0.11-0.13,1.65-2.06,1.89-2.35c1.91-2.4,4.73-6.34,7.16-9.77c2.3-3.24,4.86-7.42,6.22-9.69
		c0.22,0.64,0.59,1.68,1.13,2.55C86.59,1006.12,88.65,1007.59,88.66,1007.58L88.66,1007.58z"/>
	<path class="st0" d="M82.24,1002.73c-0.32-0.58-1.03-1.93-1.45-2.89c-0.66-1.49-0.93-2.51-0.94-2.53c0,0-0.13-0.26-0.33-0.31
		c-0.37-0.12-0.56,0.21-0.66,0.39c-1.03,1.98-3.7,6.99-6.09,10.76c-2.24,3.54-4.82,7.25-6.59,9.74c-0.23,0.32-1.76,2.45-1.76,2.45
		l-0.01,0.01c-2.73,4.1-3.86,8.59-3.8,13.53c0.03,2.66,1.7,7.4,1.7,7.4c-0.65-2.63-0.96-4.57-0.99-7.13
		c-0.06-4.74,1.3-9.32,3.91-13.25c0.1-0.14,1.54-2.14,1.76-2.45c1.78-2.5,4.23-6.52,6.48-10.07c2.12-3.35,4.6-7.96,5.84-10.29
		c0.26,0.63,0.52,1.17,0.96,2.09C80.99,1001.69,82.24,1002.73,82.24,1002.73z"/>
</g>
<rect x="-97.58" y="1390.44" transform="matrix(-1.836970e-16 1 -1 -1.836970e-16 1588.6029 1442.8674)" width="340.9" height="250.58"/>
<g>
	<g>
		<path class="st1" d="M-10.69,1600.77v-29.84H3.25v29.91c0,4.55,2.87,7.42,7.42,7.42c4.55,0,7.42-2.87,7.42-7.42v-29.91h13.94
			v29.84c0,11.84-7.56,20.1-21.36,20.1S-10.69,1612.61-10.69,1600.77z"/>
		<path class="st1" d="M40.16,1570.94h19.12c10.44,0,16.53,6.44,16.53,16.32c0,9.67-6.44,16.46-16.32,16.46H54.1v16.25H40.16
			V1570.94z M57.04,1592.02c2.94,0,4.48-2.03,4.48-4.83c0-2.66-1.68-4.55-4.34-4.55H54.1v9.38H57.04z"/>
		<path class="st1" d="M81.06,1570.94H95v36.84h14.08v12.19H81.06V1570.94z"/>
		<path class="st1" d="M128.47,1610.58l-2.94,9.39h-14.01l16.95-49.03h14.71l16.95,49.03h-14.01l-2.94-9.39H128.47z M135.83,1585.36
			l-4.06,14.08h8.12L135.83,1585.36z"/>
	</g>
	<g>
		<path class="st1" d="M-10.69,1629.52v-4.41h2.06v4.42c0,0.67,0.42,1.1,1.1,1.1s1.1-0.42,1.1-1.1v-4.42h2.06v4.41
			c0,1.75-1.12,2.97-3.16,2.97S-10.69,1631.27-10.69,1629.52z"/>
		<path class="st1" d="M-3.18,1625.12h2.1l2.33,4.11v-4.11h2.03v7.24H1.23l-2.39-4.04v4.04h-2.02V1625.12z"/>
		<path class="st1" d="M4.48,1625.12h2.06v7.24H4.48V1625.12z"/>
		<path class="st1" d="M9.8,1632.36l-2.63-7.24h2.26l1.5,4.86l1.49-4.86h2.26l-2.63,7.24H9.8z"/>
		<path class="st1" d="M15.32,1625.12h4.06v1.8h-2v0.89h1.69v1.79h-1.69v0.96h2.08v1.8h-4.14V1625.12z"/>
		<path class="st1" d="M20.47,1625.12h2.56c1.8,0,2.66,0.87,2.66,2.29c0,0.78-0.33,1.52-0.95,1.91l1.66,3.04h-2.27l-1.22-2.56h-0.37
			v2.56h-2.06V1625.12z M22.87,1628.13c0.47,0,0.71-0.28,0.71-0.65c0-0.4-0.25-0.63-0.71-0.63h-0.34v1.28H22.87z"/>
		<path class="st1" d="M28.25,1629.89c0.21,0.38,0.62,0.71,0.99,0.71c0.32,0,0.46-0.13,0.46-0.32c0-0.73-2.95-0.75-2.95-3.06
			c0-1.38,1-2.24,2.5-2.24c1.67,0,2.28,1.19,2.47,1.76l-1.71,0.77c-0.14-0.3-0.32-0.66-0.82-0.66c-0.25,0-0.39,0.13-0.39,0.33
			c0,0.81,2.97,0.77,2.97,2.95c0,1.39-0.92,2.37-2.6,2.37c-1.71,0-2.46-1.25-2.65-1.76L28.25,1629.89z"/>
		<path class="st1" d="M32.65,1625.12h2.06v7.24h-2.06V1625.12z"/>
		<path class="st1" d="M35.91,1625.12h2.36c2.33,0,3.87,1.36,3.87,3.62c0,2.23-1.52,3.62-3.87,3.62h-2.36V1625.12z M38.23,1630.62
			c1.06,0,1.77-0.63,1.77-1.88c0-1.27-0.71-1.88-1.77-1.88h-0.26v3.77H38.23z"/>
		<path class="st1" d="M44.62,1630.97l-0.43,1.39h-2.07l2.5-7.24h2.17l2.5,7.24h-2.07l-0.43-1.39H44.62z M45.71,1627.25l-0.6,2.08
			h1.2L45.71,1627.25z"/>
		<path class="st1" d="M49.94,1625.12h2.36c2.33,0,3.87,1.36,3.87,3.62c0,2.23-1.52,3.62-3.87,3.62h-2.36V1625.12z M52.25,1630.62
			c1.06,0,1.77-0.63,1.77-1.88c0-1.27-0.71-1.88-1.77-1.88H52v3.77H52.25z"/>
		<path class="st1" d="M59.08,1625.12h2.82c1.54,0,2.44,0.95,2.44,2.41c0,1.43-0.95,2.43-2.41,2.43h-0.8v2.4h-2.06V1625.12z
			 M61.57,1628.23c0.43,0,0.66-0.3,0.66-0.71c0-0.39-0.25-0.67-0.64-0.67h-0.46v1.39H61.57z"/>
		<path class="st1" d="M65.12,1625.12h4.06v1.8h-2v0.89h1.69v1.79h-1.69v0.96h2.08v1.8h-4.14V1625.12z"/>
		<path class="st1" d="M70.27,1625.12h2.56c1.8,0,2.66,0.87,2.66,2.29c0,0.78-0.33,1.52-0.95,1.91l1.66,3.04h-2.27l-1.22-2.56h-0.37
			v2.56h-2.06V1625.12z M72.67,1628.13c0.47,0,0.71-0.28,0.71-0.65c0-0.4-0.25-0.63-0.71-0.63h-0.34v1.28H72.67z"/>
		<path class="st1" d="M76.4,1629.52v-4.41h2.06v4.42c0,0.67,0.42,1.1,1.1,1.1c0.67,0,1.1-0.42,1.1-1.1v-4.42h2.06v4.41
			c0,1.75-1.12,2.97-3.16,2.97S76.4,1631.27,76.4,1629.52z"/>
		<path class="st1" d="M85.33,1630.97l-0.43,1.39h-2.07l2.5-7.24h2.17l2.5,7.24h-2.07l-0.43-1.39H85.33z M86.42,1627.25l-0.6,2.08
			h1.2L86.42,1627.25z"/>
		<path class="st1" d="M90.65,1625.12h2.1l2.33,4.11v-4.11h2.03v7.24h-2.05l-2.39-4.04v4.04h-2.02V1625.12z"/>
		<path class="st1" d="M100.25,1630.97l-0.43,1.39h-2.07l2.5-7.24h2.17l2.5,7.24h-2.07l-0.43-1.39H100.25z M101.33,1627.25
			l-0.6,2.08h1.2L101.33,1627.25z"/>
		<path class="st1" d="M107.63,1625.12h2.06v5.44h2.08v1.8h-4.14V1625.12z"/>
		<path class="st1" d="M111.92,1628.73c0-2.09,1.52-3.75,3.91-3.75s3.91,1.66,3.91,3.75c0,2.12-1.52,3.77-3.91,3.77
			S111.92,1630.85,111.92,1628.73z M114.07,1628.73c0,1.09,0.7,1.88,1.76,1.88c1.06,0,1.76-0.8,1.76-1.88c0-1.05-0.7-1.86-1.76-1.86
			C114.77,1626.86,114.07,1627.67,114.07,1628.73z"/>
		<path class="st1" d="M121.81,1629.89c0.21,0.38,0.62,0.71,0.99,0.71c0.32,0,0.46-0.13,0.46-0.32c0-0.73-2.95-0.75-2.95-3.06
			c0-1.38,1-2.24,2.5-2.24c1.67,0,2.28,1.19,2.47,1.76l-1.71,0.77c-0.14-0.3-0.32-0.66-0.82-0.66c-0.25,0-0.39,0.13-0.39,0.33
			c0,0.81,2.97,0.77,2.97,2.95c0,1.39-0.92,2.37-2.6,2.37c-1.71,0-2.46-1.25-2.65-1.76L121.81,1629.89z"/>
		<path class="st1" d="M130.23,1630.97l-0.43,1.39h-2.07l2.5-7.24h2.17l2.5,7.24h-2.07l-0.43-1.39H130.23z M131.32,1627.25
			l-0.6,2.08h1.2L131.32,1627.25z"/>
		<path class="st1" d="M135.55,1625.12h2.1l2.33,4.11v-4.11H142v7.24h-2.05l-2.39-4.04v4.04h-2.02V1625.12z"/>
		<path class="st1" d="M143.2,1625.12h2.36c2.33,0,3.87,1.36,3.87,3.62c0,2.23-1.52,3.62-3.87,3.62h-2.36V1625.12z M145.52,1630.62
			c1.06,0,1.77-0.63,1.77-1.88c0-1.27-0.71-1.88-1.77-1.88h-0.26v3.77H145.52z"/>
		<path class="st1" d="M150.28,1625.12h4.06v1.8h-2v0.89h1.69v1.79h-1.69v0.96h2.08v1.8h-4.14V1625.12z"/>
		<path class="st1" d="M156.67,1629.89c0.21,0.38,0.62,0.71,0.99,0.71c0.32,0,0.46-0.13,0.46-0.32c0-0.73-2.95-0.75-2.95-3.06
			c0-1.38,1-2.24,2.5-2.24c1.67,0,2.28,1.19,2.47,1.76l-1.71,0.77c-0.14-0.3-0.32-0.66-0.82-0.66c-0.25,0-0.39,0.13-0.39,0.33
			c0,0.81,2.97,0.77,2.97,2.95c0,1.39-0.92,2.37-2.6,2.37c-1.71,0-2.46-1.25-2.65-1.76L156.67,1629.89z"/>
	</g>
</g>
<path class="st1" d="M128.1,1512.32l-47.62,28.2c-4.71,2.79-10.57,2.79-15.28,0l-47.62-28.2c-4.58-2.71-7.38-7.63-7.38-12.95v-57.04
	c0-5.32,2.81-10.24,7.38-12.95l47.59-28.18c4.73-2.8,10.61-2.8,15.34,0l47.59,28.18c4.58,2.71,7.38,7.63,7.38,12.95v57.04
	C135.48,1504.69,132.68,1509.61,128.1,1512.32z M78.49,1537.16l47.62-28.2c3.37-2,5.46-5.67,5.46-9.58v-57.04
	c0-3.92-2.09-7.59-5.46-9.58l-47.59-28.18c-1.72-1.02-3.68-1.55-5.68-1.55s-3.96,0.54-5.68,1.55l-47.59,28.18
	c-3.37,2-5.46,5.67-5.46,9.58v57.04c0,3.92,2.09,7.59,5.46,9.58l47.62,28.2c1.71,1.01,3.66,1.55,5.65,1.55
	S76.78,1538.17,78.49,1537.16z"/>
<g>
	<path class="st1" d="M86.19,1489.6c0.09-0.01-0.76,0.86-1.22,1.36l-0.49,0.54c-1.92,2.24-3.25,5.03-3.7,8.16
		c-0.34,2.36-0.15,4.68,0.48,6.83l0,0c0.19,0.65,0.42,1.28,0.69,1.9c0.59-2.29,1.67-4.35,3.09-6.1c0.05-0.06,0.09-0.11,0.14-0.17
		c0.23-0.28,0.48-0.55,0.73-0.81l3.8-4.24c-0.09,0.01,0.76-0.87,1.22-1.36l0.48-0.54c1.92-2.24,3.24-5.03,3.69-8.16
		c0.34-2.34,0.15-4.64-0.47-6.77L86.19,1489.6z"/>
	<path class="st1" d="M96.16,1454.16c-0.19-0.65-0.42-1.28-0.69-1.9c-0.59,2.29-1.66,4.36-3.08,6.11
		c-9.53,10.61-18.52,20.59-18.52,20.59l-1.53,1.7l-0.04,0.04c-1.76,2.18-3.12,4.69-3.98,7.43c-0.2,0.64-0.37,1.29-0.51,1.94
		c-0.07,0.31-0.13,0.63-0.18,0.94c-0.41,3.64-0.01,6.72,0.42,8.67c-1.33-0.73-2.6-1.6-3.77-2.6l0,0c-0.44-0.38-0.88-0.78-1.29-1.19
		c-4.18-4.18-6.49-9.74-6.49-15.66c0-2.81,0.52-5.55,1.52-8.09c0.3-0.77,0.64-1.52,1.03-2.25c0.35-0.65,2.11-3.36,2.11-3.36
		l1.82-2.73l8.29-12.43l1.01-1.52l0.4-0.6c0.01-0.02,0.03-0.05,0.04-0.07l0.01-0.02c0.02-0.04,0.05-0.08,0.07-0.12
		c0.07-0.11,0.13-0.21,0.19-0.32c0.03-0.05,0.06-0.1,0.08-0.15c0.06-0.11,0.12-0.22,0.18-0.33c0.03-0.05,0.05-0.1,0.08-0.15
		c0.06-0.11,0.12-0.22,0.17-0.34c0.03-0.05,0.05-0.11,0.08-0.16c0.05-0.11,0.11-0.23,0.16-0.34c0.02-0.05,0.05-0.11,0.07-0.17
		c0.05-0.11,0.1-0.23,0.15-0.34c0.02-0.06,0.05-0.12,0.07-0.18c0.05-0.11,0.09-0.23,0.13-0.34c0.02-0.06,0.04-0.12,0.07-0.18
		c0.04-0.11,0.08-0.23,0.12-0.34c0.02-0.07,0.04-0.13,0.06-0.2c0.04-0.11,0.07-0.22,0.1-0.33c0.02-0.07,0.04-0.14,0.06-0.21
		c0.03-0.11,0.06-0.22,0.09-0.33c0.02-0.08,0.04-0.15,0.05-0.23c0.03-0.11,0.05-0.21,0.08-0.32c0.02-0.08,0.03-0.17,0.05-0.25
		c0.02-0.1,0.04-0.2,0.06-0.31c0.02-0.09,0.03-0.18,0.04-0.27c0.02-0.1,0.03-0.19,0.05-0.29c0.01-0.1,0.03-0.2,0.04-0.3
		c0.01-0.09,0.02-0.18,0.03-0.27c0.01-0.11,0.02-0.22,0.03-0.34c0.01-0.08,0.02-0.16,0.02-0.24c0.01-0.14,0.02-0.27,0.02-0.41
		c0-0.06,0.01-0.12,0.01-0.17c0.01-0.2,0.01-0.39,0.01-0.59c0-2.39-0.63-4.65-1.56-6.69c-0.06-0.13-0.62-1.22-0.83-1.56
		c-0.04-0.07-0.09-0.14-0.13-0.22c-0.03,0.29-0.07,0.59-0.12,0.87c-0.02,0.14-0.05,0.29-0.08,0.43c-0.03,0.17-0.07,0.34-0.11,0.51
		c-0.38,1.67-0.92,3.24-1.77,4.67c-0.11,0.18-0.22,0.35-0.33,0.53c-0.09,0.14-0.19,0.28-0.28,0.41c-0.09,0.12-0.17,0.25-0.26,0.37
		l-0.7,1.05l-10.47,15.7l-2.33,3.49l-2.02,3.02l-0.41,0.61l-0.28,0.42c-0.44,0.69-0.85,1.4-1.24,2.13
		c-0.38,0.73-0.74,1.48-1.06,2.24c-1.55,3.67-2.34,7.57-2.34,11.59c0,0.35,0.01,0.71,0.02,1.06c0.03,0.72,0.08,1.44,0.15,2.15
		c0.04,0.35,0.08,0.71,0.13,1.06c0.36,2.52,1.04,4.97,2.04,7.33c0.66,1.55,1.44,3.03,2.33,4.44c0.13,0.2,0.26,0.4,0.39,0.6
		c1.07,1.58,2.29,3.06,3.65,4.43c0.23,0.23,0.46,0.45,0.7,0.67c0.08,0.07,0.15,0.14,0.23,0.21c0.16,0.15,0.33,0.3,0.49,0.44
		c0.09,0.08,0.18,0.16,0.27,0.23c0.17,0.14,0.34,0.28,0.51,0.42c0.08,0.07,0.16,0.14,0.24,0.2c0.23,0.18,0.46,0.36,0.7,0.54
		c0.12,0.09,0.24,0.18,0.36,0.27c0.13,0.1,0.26,0.19,0.39,0.28c0.14,0.1,0.27,0.19,0.41,0.28c0.12,0.08,0.24,0.16,0.36,0.24
		c0.14,0.1,0.29,0.19,0.43,0.28c0,0,0.01,0.01,0.01,0.01c0.2,0.14,0.41,0.26,0.63,0.39c0.02,0.01,0.03,0.02,0.05,0.03
		c0.07,0.04,0.15,0.09,0.22,0.13c0.22,0.13,0.45,0.26,0.67,0.38c0,0,0,0,0,0c0.04,0.02,0.08,0.05,0.12,0.07l0,0
		c0.09,0.05,0.18,0.09,0.27,0.14c0.35,0.18,0.69,0.36,1.05,0.54c0.03,0.01,0.06,0.03,0.08,0.04c0.42,0.2,0.85,0.39,1.28,0.58
		c0.02,0.01,0.04,0.01,0.06,0.02c1.78,0.75,3.62,1.32,5.49,1.71c0,0,0,0,0,0l0,0c0,0,0,0,0,0c0.17,0.04,0.35,0.07,0.52,0.1l0,0l0,0
		c-1.03-2.62-1.55-5.42-1.53-8.26c0-0.01,0-0.02,0-0.03c0-0.05,0-0.09,0-0.14c0.02-0.94,0.09-1.88,0.22-2.83
		c0.02-0.13,0.04-0.25,0.06-0.38c0.68-4.23,2.53-8.09,5.33-11.22c0.02-0.02,0.03-0.03,0.05-0.05l8.59-9.58l4.22-4.7l0.47-0.53
		c0.62-0.73,0.76-0.87,1.22-1.36l0.48-0.54c1.92-2.24,3.97-5.77,4.42-8.9C96.99,1458.63,96.79,1456.31,96.16,1454.16z"/>
	<path class="st1" d="M88.66,1458.58c0,0-1.3-1.44-2.18-2.94c-0.86-1.48-1.37-3.54-1.37-3.56c0,0-0.11-0.27-0.32-0.33
		c-0.36-0.14-0.57,0.18-0.68,0.36c-1.14,1.92-4.06,6.78-6.65,10.42c-2.42,3.41-5.2,6.98-7.1,9.38c-0.24,0.3-1.89,2.36-1.89,2.36
		l-0.01,0.01c-2.94,3.95-4.61,8.64-4.81,13.58c-0.11,2.66,1.59,7.64,1.59,7.64c-0.51-2.67-0.69-5.05-0.59-7.6
		c0.19-4.73,1.79-9.24,4.61-13.02c0.11-0.13,1.65-2.06,1.89-2.35c1.91-2.4,4.73-6.34,7.16-9.77c2.3-3.24,4.86-7.42,6.22-9.69
		c0.22,0.64,0.59,1.68,1.13,2.55C86.59,1457.12,88.65,1458.59,88.66,1458.58L88.66,1458.58z"/>
	<path class="st1" d="M82.24,1453.73c-0.32-0.58-1.03-1.93-1.45-2.89c-0.66-1.49-0.93-2.51-0.94-2.53c0,0-0.13-0.26-0.33-0.31
		c-0.37-0.12-0.56,0.21-0.66,0.39c-1.03,1.98-3.7,6.99-6.09,10.76c-2.24,3.54-4.82,7.25-6.59,9.74c-0.23,0.32-1.76,2.45-1.76,2.45
		l-0.01,0.01c-2.73,4.1-3.86,8.59-3.8,13.53c0.03,2.66,1.7,7.4,1.7,7.4c-0.65-2.63-0.96-4.57-0.99-7.13
		c-0.06-4.74,1.3-9.32,3.91-13.25c0.1-0.14,1.54-2.14,1.76-2.45c1.78-2.5,4.23-6.52,6.48-10.07c2.12-3.35,4.6-7.96,5.84-10.29
		c0.26,0.63,0.52,1.17,0.96,2.09C80.99,1452.69,82.24,1453.73,82.24,1453.73z"/>
</g>
</svg>
