<?xml version="1.0" standalone="no"?>
<!DOCTYPE svg PUBLIC "-//W3C//DTD SVG 20010904//EN"
 "http://www.w3.org/TR/2001/REC-SVG-20010904/DTD/svg10.dtd">
<svg version="1.0" xmlns="http://www.w3.org/2000/svg"
 width="1821.000000pt" height="2112.000000pt" viewBox="0 0 1821.000000 2112.000000"
 preserveAspectRatio="xMidYMid meet">

<g transform="translate(0.000000,2112.000000) scale(0.100000,-0.100000)"
fill="#007dbc" stroke="none">
<path d="M8955 20649 c-97 -14 -234 -57 -325 -102 -103 -52 -7618 -4501 -7710
-4565 -133 -94 -262 -238 -345 -387 -43 -76 -89 -200 -118 -315 l-21 -85 -4
-4570 c-2 -3175 0 -4602 8 -4675 27 -277 141 -516 339 -710 53 -52 132 -118
176 -147 106 -68 7597 -4504 7661 -4536 288 -146 671 -155 971 -24 43 19 1736
1016 3763 2217 4387 2598 3977 2353 4073 2435 190 162 329 403 378 657 19 96
19 214 19 4709 0 4594 0 4611 -20 4710 -63 306 -233 566 -480 731 -110 73
-7594 4505 -7686 4551 -197 98 -454 138 -679 106z m17 -2441 c405 -728 522
-1430 367 -2188 -51 -251 -137 -493 -263 -745 -83 -167 -174 -306 -1286 -1975
-657 -987 -1255 -1891 -1328 -2007 -243 -389 -393 -735 -502 -1158 -184 -710
-184 -1429 0 -2141 140 -541 389 -1054 727 -1496 257 -336 611 -676 961 -921
128 -90 361 -232 368 -224 3 2 -4 52 -15 110 -56 291 -81 578 -81 942 0 390
14 550 71 805 130 584 394 1158 750 1633 69 91 376 440 859 977 2231 2476
3122 3473 3197 3573 202 274 382 641 474 965 12 45 25 82 28 82 3 0 21 -37 38
-83 213 -542 275 -1100 182 -1654 -63 -383 -263 -843 -554 -1278 -126 -188
-229 -318 -417 -526 -844 -936 -2823 -3152 -2905 -3254 -501 -622 -816 -1398
-905 -2235 -20 -188 -17 -686 6 -875 40 -343 116 -666 227 -973 23 -62 40
-115 38 -117 -3 -2 -65 9 -139 24 -682 143 -1382 438 -1969 831 -1148 768
-1968 1893 -2341 3210 -198 701 -259 1480 -174 2220 92 807 368 1613 787 2298
38 63 798 1206 1689 2540 891 1335 1644 2468 1674 2519 167 282 330 787 370
1141 3 34 10 62 14 62 3 0 27 -37 52 -82z m1301 -2968 c18 -15 36 -51 62 -133
79 -240 183 -478 340 -777 47 -90 85 -167 85 -172 0 -37 -194 176 -286 314
-52 77 -235 440 -268 532 -3 10 -8 17 -10 15 -2 -2 -83 -152 -181 -334 -442
-821 -628 -1138 -1177 -2013 -681 -1084 -800 -1266 -1132 -1729 -130 -182
-272 -390 -316 -464 -576 -957 -768 -2082 -555 -3244 22 -118 83 -402 102
-470 3 -13 2 -17 -5 -10 -22 22 -155 461 -222 736 -98 404 -120 610 -102 976
7 136 19 307 27 378 75 641 270 1226 583 1748 42 71 160 244 261 385 1174
1637 1755 2558 2505 3977 76 143 149 270 163 283 31 29 91 30 126 2z m1012
-724 c13 -13 29 -43 35 -67 28 -107 122 -374 168 -479 88 -196 245 -433 439
-662 41 -49 69 -88 63 -88 -17 0 -132 91 -261 206 -113 101 -223 221 -297 327
-51 72 -134 241 -186 377 -20 52 -40 103 -44 112 -5 13 -53 -58 -182 -270
-466 -764 -742 -1182 -1247 -1890 -606 -849 -905 -1250 -1293 -1737 -268 -336
-332 -425 -450 -619 -473 -785 -688 -1669 -642 -2638 15 -308 59 -686 108
-933 4 -20 3 -27 -4 -20 -13 13 -119 365 -170 570 -129 510 -157 787 -117
1170 59 572 205 1088 450 1590 182 372 311 566 718 1077 1205 1512 1781 2330
2582 3663 92 154 180 292 193 308 35 37 101 38 137 3z m1882 -5535 c31 -119
71 -348 84 -486 17 -178 6 -575 -20 -748 -27 -176 -91 -429 -146 -582 -151
-417 -355 -749 -666 -1083 -68 -73 -157 -172 -198 -220 -41 -48 -246 -278
-455 -511 -210 -233 -412 -460 -449 -505 -248 -294 -453 -673 -574 -1064 -20
-67 -40 -122 -43 -122 -12 0 -111 277 -150 419 -209 762 -109 1615 270 2301
69 125 200 324 284 430 37 47 136 159 220 250 85 91 169 185 187 208 77 98
1615 1801 1624 1798 6 -1 20 -40 32 -85z"/>
</g>
</svg>
