<?xml version="1.0" standalone="no"?>
<!DOCTYPE svg PUBLIC "-//W3C//DTD SVG 20010904//EN"
 "http://www.w3.org/TR/2001/REC-SVG-20010904/DTD/svg10.dtd">
<svg version="1.0" xmlns="http://www.w3.org/2000/svg"
 width="1982.000000pt" height="2757.000000pt" viewBox="0 0 1982.000000 2757.000000"
 preserveAspectRatio="xMidYMid meet">

<g transform="translate(0.000000,2757.000000) scale(0.100000,-0.100000)"
fill="#007dbc" stroke="none">
<path d="M9837 26125 c-68 -38 -8525 -5049 -8554 -5068 -17 -11 -38 -33 -47
-48 -15 -25 -16 -478 -16 -5139 0 -4443 2 -5115 14 -5139 8 -15 27 -36 42 -46
15 -9 1949 -1156 4298 -2548 3907 -2314 4275 -2530 4322 -2535 31 -2 61 1 75
8 45 24 8534 5051 8559 5069 14 10 35 33 48 51 l22 33 0 5106 c0 5051 0 5106
-20 5138 -10 18 -36 43 -57 57 -21 13 -1955 1160 -4298 2548 -3992 2364 -4263
2523 -4310 2525 -31 2 -61 -3 -78 -12z m-15 -3171 c194 -367 301 -685 360
-1074 25 -162 30 -520 10 -695 -48 -406 -157 -755 -353 -1127 -30 -57 -571
-879 -1204 -1828 -1243 -1865 -1413 -2126 -1528 -2355 -412 -824 -535 -1799
-343 -2719 137 -654 408 -1224 843 -1772 112 -141 487 -515 626 -624 166 -130
333 -247 477 -334 72 -43 133 -76 134 -75 2 2 -7 56 -20 119 -61 307 -89 671
-81 1040 7 291 17 411 48 570 86 441 255 895 478 1286 84 146 253 399 340 507
39 48 834 936 1768 1975 2190 2434 2094 2326 2152 2403 217 288 387 630 494
994 l24 80 22 -50 c44 -97 140 -401 165 -523 79 -373 92 -740 41 -1085 -85
-569 -452 -1274 -938 -1802 -51 -55 -142 -156 -202 -225 -61 -68 -661 -739
-1334 -1490 -673 -751 -1262 -1410 -1308 -1465 -930 -1112 -1210 -2667 -729
-4049 l55 -158 -42 6 c-76 12 -266 57 -412 97 -790 216 -1553 623 -2180 1160
-166 142 -489 467 -625 629 -622 739 -1041 1604 -1229 2535 -196 973 -129
1995 191 2934 111 328 298 737 468 1025 45 77 819 1245 1720 2595 900 1351
1655 2490 1678 2531 134 245 270 672 318 998 10 69 22 121 28 119 5 -2 45 -70
88 -153z m1245 -2851 c14 -16 41 -76 62 -143 74 -225 190 -490 335 -762 46
-87 81 -158 79 -158 -27 0 -199 191 -279 311 -55 83 -264 501 -264 529 0 33
-29 -12 -125 -192 -238 -448 -557 -1016 -769 -1372 -101 -168 -745 -1197 -983
-1569 -195 -304 -387 -589 -587 -867 -224 -313 -249 -349 -339 -500 -295 -497
-495 -1083 -571 -1675 -41 -320 -46 -761 -11 -1085 26 -246 94 -622 149 -827
8 -29 11 -53 7 -53 -17 0 -176 536 -235 792 -83 358 -102 551 -87 889 32 693
168 1250 441 1804 114 232 216 397 427 690 689 961 1273 1830 1643 2445 228
380 563 978 854 1527 59 112 119 212 133 223 38 30 90 26 120 -7z m988 -705
c19 -18 37 -61 74 -183 57 -183 122 -351 183 -468 77 -147 226 -359 393 -559
31 -38 53 -68 48 -68 -5 0 -59 39 -119 87 -132 106 -321 293 -392 388 -67 89
-161 273 -221 430 l-47 123 -59 -97 c-633 -1040 -881 -1412 -1659 -2491 -381
-528 -674 -916 -961 -1275 -253 -316 -401 -526 -519 -740 -447 -803 -623
-1674 -545 -2690 16 -204 67 -586 95 -705 3 -16 2 -22 -4 -15 -13 13 -119 367
-171 570 -116 460 -148 730 -121 1050 60 717 277 1397 638 2000 128 214 231
355 543 745 1180 1477 1760 2305 2628 3752 45 76 92 144 104 153 32 22 82 19
112 -7z m1869 -5493 c31 -123 62 -306 76 -444 13 -133 13 -440 0 -572 -68
-672 -341 -1287 -789 -1774 -56 -60 -141 -154 -189 -209 -48 -54 -262 -295
-477 -534 -457 -510 -461 -515 -535 -612 -205 -270 -358 -564 -461 -884 -28
-89 -54 -168 -57 -176 -11 -34 -112 242 -167 455 -180 700 -101 1448 221 2100
132 267 293 501 499 725 63 69 147 161 186 205 598 676 1655 1841 1661 1832 3
-7 18 -57 32 -112z"/>
<path d="M3753 2738 l3 -1273 27 -121 c141 -636 557 -1024 1223 -1139 137 -23
365 -34 530 -24 278 16 497 70 709 173 412 202 663 543 762 1036 15 77 17 210
20 1353 l4 1267 -536 0 -535 0 0 -1197 c0 -1330 3 -1262 -68 -1397 -91 -174
-276 -276 -502 -276 -226 0 -423 109 -507 281 -65 132 -63 72 -63 1392 l0
1197 -535 0 -536 0 4 -1272z"/>
<path d="M7660 2125 l0 -1885 535 0 535 0 0 630 0 630 283 0 c293 0 368 6 501
41 217 55 364 138 522 294 239 235 345 492 360 870 10 253 -29 468 -121 662
-59 125 -105 193 -198 290 -174 182 -407 295 -690 337 -88 14 -235 16 -916 16
l-811 0 0 -1885z m1450 964 c76 -36 112 -68 148 -136 40 -76 55 -165 42 -255
-19 -132 -85 -228 -189 -277 -52 -24 -69 -26 -218 -29 l-163 -4 0 367 0 367
163 -4 c149 -3 166 -5 217 -29z"/>
<path d="M10810 2125 l0 -1885 1075 0 1075 0 0 470 0 470 -540 0 -540 0 0
1415 0 1415 -535 0 -535 0 0 -1885z"/>
<path d="M13805 2127 l-651 -1882 536 -3 c423 -2 536 0 540 10 2 7 54 171 115
363 l110 350 567 3 567 2 36 -117 c21 -65 71 -228 114 -363 l77 -245 537 -3
c295 -1 537 -1 537 1 0 4 -1242 3598 -1277 3695 l-26 72 -566 0 -566 0 -650
-1883z m1385 203 l146 -505 -309 -3 c-171 -1 -312 -1 -314 1 -3 4 289 1029
304 1067 7 18 -7 64 173 -560z"/>
</g>
</svg>
